<svg width="255" height="67" viewBox="0 0 255 67" fill="none" xmlns="http://www.w3.org/2000/svg">
<g clip-path="url(#clip0_485_939)">
<path d="M35.1867 15.193C34.772 15.132 34.3547 15.0989 33.9451 15.0989C27.7775 15.0989 23.3649 21.9065 21.7541 24.8357C21.4102 25.4592 21.4683 26.2252 21.8982 26.7877C22.2623 27.261 22.8288 27.5181 23.423 27.4723C24.0198 27.4264 24.5483 27.0854 24.8417 26.5586C26.4575 23.6498 29.7879 18.7686 33.9628 18.7686C34.1904 18.7686 34.4205 18.7865 34.6455 18.8221C38.0518 19.3362 39.9104 25.4898 39.2706 34.1323C38.4108 45.7498 33.2623 58.1868 26.9683 58.1868C17.8573 58.1868 6.59937 44.0575 4.11615 32.9209C3.3196 29.3479 3.12995 24.7288 6.76121 23.0008C7.26443 22.7616 7.82328 22.642 8.41753 22.642C12.724 22.642 18.1835 28.5666 20.9727 34.2926C22.849 38.1431 22.6948 40.3012 22.2017 40.5531C22.1131 40.5989 22.0019 40.6218 21.8704 40.6218C20.5175 40.6218 17.478 38.2652 14.8001 35.1375C14.1628 34.3944 13.0628 34.2825 12.2966 34.8881C11.8996 35.1986 11.6568 35.6465 11.6063 36.1504C11.5557 36.6543 11.7099 37.1455 12.0387 37.5298C14.1881 40.0467 18.3327 44.2687 21.9538 44.2687C22.6341 44.2687 23.2738 44.1186 23.8529 43.8208C26.7711 42.3295 26.9177 38.1634 24.2449 32.6766C21.0081 26.0318 14.3499 18.9671 8.39224 18.9671C7.27707 18.9671 6.20489 19.2089 5.20351 19.6848C0.672019 21.8404 -0.976715 26.8258 0.560755 33.7226C3.38282 46.3861 16.1251 61.8515 26.9683 61.8515C36.5573 61.8515 42.0598 45.8007 42.9044 34.4021C43.7313 23.2273 40.846 16.0456 35.1867 15.1905V15.193Z" fill="#009FE3"/>
<path d="M32.3774 10.5767C32.7769 10.6657 33.1815 10.709 33.5785 10.709C34.9896 10.709 36.3425 10.1593 37.3539 9.14387C38.6487 7.84088 39.1822 5.96782 38.7776 4.13294C38.3452 2.17589 36.7496 0.567507 34.805 0.132327C32.9843 -0.27486 31.1231 0.262118 29.8259 1.56511C28.5312 2.86811 27.9976 4.74117 28.4022 6.57605C28.8346 8.53309 30.4303 10.1415 32.3774 10.5741V10.5767Z" fill="#009FE3"/>
<path d="M5.08385 14.7859C5.48592 14.875 5.88799 14.9182 6.285 14.9182C7.69604 14.9182 9.05144 14.3685 10.0604 13.3506C11.3551 12.0476 11.8887 10.1745 11.4841 8.34216C11.0517 6.38512 9.45603 4.77674 7.51144 4.34156C5.69075 3.93437 3.8296 4.47135 2.53489 5.77434C1.24018 7.07734 0.706617 8.9504 1.11121 10.7827C1.54363 12.7398 3.13926 14.3482 5.08385 14.7833V14.7859Z" fill="#009FE3"/>
<path d="M54.5508 20.937C52.6239 20.937 51.0586 22.5149 51.0586 24.4515C51.0586 26.3882 52.5935 28.017 54.5508 28.017C56.508 28.017 58.043 26.4518 58.043 24.4515C58.043 22.4512 56.4751 20.937 54.5508 20.937Z" fill="#0B236D"/>
<path d="M57.7475 31.5085H51.3574V56.9781H57.7475V31.5085Z" fill="#0B236D"/>
<path d="M90.6961 31.0581C86.946 31.0581 84.0987 32.356 82.2325 34.9137C80.3663 32.3535 77.5189 31.0581 73.7688 31.0581C65.2748 31.0581 62.1113 37.6723 62.1113 41.8384V56.9781H68.5014V41.9885C68.5014 38.3366 71.2224 37.0361 73.7713 37.0361C76.3203 37.0361 79.0412 38.3366 79.0412 41.9885V56.9781H85.4313V41.9885C85.4313 38.3366 88.1522 37.0361 90.7012 37.0361C93.2502 37.0361 95.9711 38.3366 95.9711 41.9885V56.9781H102.361V41.8384C102.361 37.6698 99.1952 31.0581 90.7037 31.0581H90.6961Z" fill="#0B236D"/>
<path d="M119.972 31.1091C112.199 31.1091 106.77 36.4891 106.77 44.1951V67.0001H113.16V54.8761C114.662 56.4514 117.266 57.3803 120.27 57.3803C127.72 57.3803 132.924 51.9571 132.924 44.1951C132.924 36.4331 127.72 31.1091 119.972 31.1091ZM126.534 44.2434C126.534 48.6869 123.962 51.4506 119.82 51.4506C115.678 51.4506 113.157 48.6894 113.157 44.2434C113.157 39.7975 115.711 37.0362 119.82 37.0362C123.93 37.0362 126.534 39.7975 126.534 44.2434Z" fill="#0B236D"/>
<path d="M149.592 31.1575C141.786 31.1575 136.539 36.4153 136.539 44.2434C136.539 52.0716 141.723 57.4286 149.142 57.4286C152.177 57.4286 154.799 56.5023 156.304 54.9244V56.9782H162.691V44.3452C162.691 36.4585 157.426 31.16 149.59 31.16L149.592 31.1575ZM149.643 51.5015C145.503 51.5015 142.929 48.7403 142.929 44.2943C142.929 39.8484 145.501 37.0871 149.643 37.0871C153.785 37.0871 156.306 39.8484 156.306 44.2943C156.306 48.7403 153.752 51.5015 149.643 51.5015Z" fill="#0B236D"/>
<path d="M185.747 47.623C184.723 50.1246 182.546 51.5014 179.618 51.5014C175.509 51.5014 172.955 48.7402 172.955 44.2942C172.955 39.8483 175.509 37.087 179.618 37.087C182.516 37.087 184.675 38.4129 185.699 40.8179L185.752 40.9451H192.373L192.315 40.6906C190.982 34.8119 186.134 31.1599 179.666 31.1599C171.829 31.1599 166.564 36.4177 166.564 44.2459C166.564 52.074 171.829 57.4311 179.666 57.4311C186.215 57.4311 190.962 53.8122 192.363 47.7502L192.421 47.4932H185.798L185.745 47.623H185.747Z" fill="#0B236D"/>
<path d="M202.525 45.1951V37.4382H208.199V31.5086H202.525V21.4893H196.135V45.246C196.135 53.1506 200.527 57.3293 208.839 57.3293H209.046V51.3997H208.839C204.295 51.3997 202.525 49.6589 202.525 45.1951Z" fill="#0B236D"/>
<path d="M224.522 31.1575C216.716 31.1575 211.469 36.4153 211.469 44.2434C211.469 52.0716 216.653 57.4286 224.072 57.4286C227.106 57.4286 229.729 56.5023 231.233 54.9244V56.9782H237.621V44.3452C237.621 36.4585 232.356 31.16 224.52 31.16L224.522 31.1575ZM224.573 51.5015C220.433 51.5015 217.859 48.7403 217.859 44.2943C217.859 39.8484 220.431 37.0871 224.573 37.0871C228.715 37.0871 231.236 39.8484 231.236 44.2943C231.236 48.7403 228.682 51.5015 224.573 51.5015Z" fill="#0B236D"/>
<path d="M254.793 31.0581C246.815 31.0581 242.238 35.3157 242.238 42.7418V56.9781H248.628V42.7418C248.628 38.9779 250.76 36.9878 254.793 36.9878H255.001V31.0581H254.793Z" fill="#0B236D"/>
<path d="M97.566 21.395C96.643 18.8705 94.3191 17.5395 90.655 17.4351C89.3931 17.4046 89.2262 17.2315 89.2237 17.257C89.2237 17.2468 89.2161 17.1577 89.3198 16.7964C89.4007 16.5164 89.5145 16.2034 89.6561 15.8726C90.8623 13.2462 91.229 10.6657 90.7435 8.19963L90.6525 7.739C90.4906 6.99843 90.3313 6.44619 90.177 6.09499C90.0203 5.74379 89.7598 5.34169 89.4083 4.90651C88.3058 3.4101 86.695 2.38704 84.6265 1.86534C83.5265 1.55995 82.5276 1.39707 81.6578 1.37671C80.7803 1.35635 79.7511 1.46324 78.6005 1.69228L78.4817 1.71519C76.3069 2.14782 74.1247 3.04618 71.9955 4.38735C68.5867 6.46145 67.0948 7.9146 67.3021 8.96056C67.3729 9.32194 67.598 9.7164 67.9874 10.1643C68.3693 10.6046 68.7435 10.9023 69.095 11.0525C69.4895 11.2103 69.8941 11.2535 70.2987 11.1721C70.7437 11.083 71.1913 10.8514 71.6237 10.485C72.2407 9.98616 73.1258 9.37284 74.2536 8.66281C75.389 7.95023 76.3449 7.3878 77.0858 6.99843C78.3072 6.43092 79.5437 6.01864 80.76 5.77687L81.0863 5.71325C82.4113 5.49948 83.5695 5.52238 84.5329 5.78196C85.3446 5.99319 85.8656 6.27313 86.078 6.61669C86.3056 6.98571 86.4548 7.34709 86.523 7.6881C86.604 8.10038 86.6267 8.589 86.5913 9.15143C86.5534 11.3502 85.5722 13.8061 83.6732 16.4528C82.8538 17.6006 82.0446 18.5931 81.2658 19.4049C80.3529 20.3541 79.9635 20.5985 79.7612 20.6595C79.7561 20.6519 79.746 20.6443 79.7359 20.629C79.7132 20.5985 79.6702 20.517 79.6348 20.3262L79.4097 19.1809C79.3313 18.6974 79.2276 18.0459 79.1012 17.2239L78.5929 14.1191C78.421 13.0757 78.2819 12.2766 78.1757 11.7396L77.7812 9.72913L76.9644 9.22523C76.3651 8.87913 75.8265 8.75188 75.3637 8.84095C75.1968 8.87404 75.0401 8.93511 74.9086 9.01909C74.3421 9.35757 74.0488 10.0218 74.0437 11.0016C74.1095 13.1037 74.5621 16.323 75.3966 20.5679C75.5635 21.4179 75.7481 22.3137 75.9479 23.2528C76.5042 25.925 76.9847 27.9914 77.3741 29.3937C77.7635 30.7934 78.2237 32.1142 78.7421 33.3154C78.9166 33.7175 79.038 34.0229 79.1012 34.2189C79.1619 34.4123 79.2049 34.57 79.2302 34.6922L79.2605 34.8398C79.2706 34.962 79.2555 35.0994 79.2074 35.2724C79.1771 35.4684 79.1568 35.6694 79.1467 35.8781C79.1366 36.0995 79.1417 36.2701 79.167 36.3998C79.2428 36.7816 79.4906 37.1811 79.9256 37.6265C80.1683 37.8734 80.4187 38.0769 80.6715 38.2373L81.2405 38.5274C81.4909 38.5885 81.764 38.619 82.0522 38.619C82.3405 38.619 82.6743 38.5859 83.0132 38.5198C83.9513 38.334 85.0538 37.8937 86.2955 37.2091C87.3676 36.578 88.5966 35.7178 89.9469 34.6515C91.2998 33.5852 92.5338 32.5138 93.6212 31.4627C95.7504 29.269 97.1159 27.2356 97.6849 25.4134C97.8593 24.7492 97.9403 24.1257 97.9226 23.5633C97.9049 23.0009 97.8669 22.5631 97.8012 22.2323C97.743 21.9345 97.6621 21.6521 97.5584 21.395H97.566ZM80.9143 26.2176C80.9345 25.9911 81.0433 25.6705 81.7412 25.5305C81.8171 25.5152 81.9561 25.4745 82.3127 25.2837C82.558 25.1513 82.8159 24.9986 83.0764 24.823C84.0879 24.1181 85.2435 23.5149 86.5154 23.0339C87.7925 22.5504 88.9481 22.2043 89.9469 22.0083C90.2605 21.9447 90.569 21.8938 90.8699 21.848C91.3883 21.7742 91.8207 21.736 92.1596 21.736C92.3872 21.736 92.5718 21.7539 92.7159 21.7869C93.0219 21.8607 93.1964 22.0287 93.2697 22.3315C93.4518 23.2528 92.7892 24.6296 91.2998 26.4212C89.7826 28.2485 87.7191 30.119 85.1727 31.9742C84.2219 32.669 83.8577 32.8777 83.7161 32.9337C83.4405 33.0406 83.3368 33.0685 83.2964 33.0762C83.0663 33.1245 82.9853 33.0533 82.9702 33.038C82.9246 32.9922 82.7856 32.7937 82.4821 31.959C82.252 31.3253 82.0067 30.5847 81.7538 29.7576C81.5035 28.9356 81.3189 28.2867 81.2051 27.8337C81.0913 27.3807 81.018 27.0651 80.9851 26.892C80.9017 26.4645 80.9067 26.294 80.9194 26.2176H80.9143Z" fill="#009FE3"/>
<path d="M116.719 18.2036C116.547 17.3333 116.342 16.58 116.102 15.9641C115.75 15.1217 115.179 14.1852 114.4 13.1825C112.941 11.2229 111.302 10.0777 109.535 9.77994C109.054 9.68578 108.604 9.65015 108.197 9.68324C107.8 9.71123 107.223 9.8003 106.488 9.94536C105.939 10.0548 105.512 10.149 105.218 10.2228C104.917 10.2991 104.654 10.406 104.437 10.5409C104.227 10.6707 103.977 10.859 103.688 11.1008C101.094 13.3072 100.067 16.6741 100.634 21.1074C100.674 21.4026 100.722 21.6876 100.775 21.9625C101.299 24.6295 102.399 26.8741 104.047 28.6327C105.876 30.5999 108.136 31.7171 110.759 31.9538C110.974 31.9792 111.183 31.992 111.393 31.992C111.712 31.992 112.026 31.9614 112.326 31.9029C113.672 31.6357 114.767 30.7399 115.578 29.246C117.131 26.7469 117.579 23.408 116.911 19.3183C116.85 18.9289 116.787 18.5548 116.716 18.2011L116.719 18.2036ZM112.789 22.1457C112.726 23.128 112.529 24.0849 112.205 24.9858C111.886 25.874 111.492 26.5637 111.044 27.0243C110.766 27.2762 110.435 27.4391 110.058 27.5155C109.722 27.5816 109.348 27.5689 108.948 27.4798C108.081 27.2762 107.315 26.7774 106.685 26.014C105.982 25.0418 105.486 23.8457 105.213 22.4562C105.13 22.0363 105.066 21.5858 105.023 21.1201C104.846 19.1478 105.117 17.5063 105.823 16.2466C106.338 15.4118 106.88 14.852 107.428 14.5797C107.995 14.2972 108.45 14.1216 108.781 14.0554C109.006 14.0121 109.229 13.9892 109.446 13.9892C109.676 13.9892 109.901 14.0147 110.114 14.0605C110.883 14.3226 111.593 15.2261 112.218 16.7327C112.321 17.0177 112.415 17.3663 112.493 17.7659C112.574 18.1782 112.64 18.6439 112.693 19.1554C112.809 20.1632 112.842 21.1684 112.789 22.1431V22.1457Z" fill="#009FE3"/>
<path d="M134.771 5.78441C133.433 4.27782 131.678 3.72558 129.559 4.14549C129.22 4.21166 128.871 4.30582 128.52 4.42797C127.068 4.92169 125.839 5.96765 124.866 7.53786C124.605 7.94759 124.37 8.28098 124.17 8.52274C124.031 8.67544 123.948 8.75179 123.905 8.78741C123.884 8.7696 123.857 8.74161 123.824 8.70089C123.743 8.60164 123.667 8.48966 123.609 8.38786C123.318 7.71601 122.88 7.23247 122.304 6.94999C121.791 6.71076 121.285 6.63442 120.799 6.73367C120.766 6.7413 120.615 6.78457 120.347 6.86091C120.01 6.96017 119.763 7.32918 119.586 8.01631C119.517 8.55328 119.631 9.57379 119.937 11.1313C119.985 11.3705 120.127 12.0525 120.364 13.1799C120.6 14.3048 121.057 16.0532 121.717 18.3767C122.38 20.7078 123.052 22.7463 123.712 24.4361C124.517 26.4542 125.515 27.5842 126.681 27.7954H126.686C126.78 27.8107 126.876 27.8183 126.969 27.8183C127.083 27.8183 127.194 27.8081 127.303 27.7852C127.64 27.719 127.933 27.5256 128.16 27.2253C128.257 27.1184 128.295 26.9403 128.287 26.6273C128.279 26.3753 128.231 25.9783 128.143 25.4413C128.054 24.9095 127.918 24.1689 127.733 23.2222C127.528 22.1762 127.377 21.3466 127.286 20.7511C127.194 20.1683 127.139 19.644 127.116 19.1987C127.093 18.7609 127.103 18.224 127.146 17.6005C127.227 14.0376 127.771 11.5614 128.767 10.2253C129.47 9.14879 130.31 8.50238 131.263 8.29625L131.43 8.26316C131.675 8.21226 131.895 8.20463 132.083 8.23262C132.272 8.26316 132.553 8.37514 132.92 8.56855C133.554 8.8943 134.068 9.01137 134.482 8.92739C134.793 8.86631 135.044 8.68307 135.226 8.38786C135.431 8.05957 135.484 7.64475 135.39 7.16121C135.297 6.68531 135.092 6.22723 134.768 5.77932L134.771 5.78441Z" fill="#009FE3"/>
<path d="M157.734 20.2599C157.686 20.0156 157.592 19.7611 157.451 19.504C157.147 18.9467 156.697 18.4988 156.108 18.1756L156.085 18.1654C155.764 18.0356 155.516 17.8295 155.324 17.5317C155.124 17.2212 154.914 16.6105 154.7 15.7172C154.48 14.8087 154.174 13.3453 153.787 11.3679L152.752 6.08724L151.683 4.66208C149.966 2.39202 148.003 1.45549 145.844 1.88558C145.68 1.91866 145.508 1.96193 145.325 2.01537C143.71 2.52435 142.458 3.54487 141.608 5.04382C140.771 6.51987 140.215 8.05955 139.954 9.61449C139.583 11.3552 139.388 12.9738 139.373 14.4218C139.358 15.8699 139.441 17.0635 139.618 17.9694C139.795 18.8754 140.073 19.7662 140.445 20.6289C140.974 21.6952 141.679 22.6165 142.544 23.3672C143.414 24.1281 144.317 24.5888 145.222 24.7389C145.422 24.772 145.621 24.7873 145.819 24.7873C146.049 24.7873 146.279 24.7644 146.506 24.7211C148.14 24.3954 149.634 22.8888 150.947 20.2446C151.109 19.9418 151.268 19.672 151.42 19.443C151.511 19.3055 151.569 19.2317 151.599 19.1961C151.645 19.2292 151.726 19.2979 151.862 19.4328C152.087 19.6618 152.34 19.9468 152.608 20.2726C153.678 21.6392 154.722 22.3594 155.706 22.4078C155.893 22.4231 156.08 22.418 156.257 22.3823C156.505 22.334 156.738 22.2398 156.942 22.11C157.324 21.8861 157.582 21.5934 157.709 21.2295C157.795 20.919 157.805 20.5907 157.739 20.2548L157.734 20.2599ZM144.873 20.0817C144.8 20.097 144.739 20.0817 144.678 20.0436C144.537 19.9494 144.334 19.6618 144.172 18.8373L144.15 18.7227C143.968 17.631 143.922 16.2974 144.011 14.7578C144.099 13.213 144.342 11.7115 144.729 10.2991C145.255 8.62197 145.814 7.49203 146.39 6.94233C147.103 6.26029 147.467 6.07451 147.649 6.03888C147.703 6.0287 147.756 6.02361 147.804 6.02361C148.049 6.02361 148.256 6.15086 148.433 6.40535C148.509 6.55041 148.585 6.71074 148.658 6.88125C148.729 7.04413 148.775 7.17646 148.792 7.27062C148.823 7.41823 148.825 7.87886 148.676 9.22512C148.555 10.3169 148.395 11.4748 148.201 12.6608C148.006 13.8441 147.831 14.7578 147.677 15.3762C147.424 16.2389 147.068 17.1169 146.613 17.9796C146.165 18.8347 145.74 19.4328 145.358 19.756C145.25 19.84 145.138 19.9163 145.027 19.9876C144.906 20.0614 144.868 20.0792 144.87 20.0792L144.873 20.0817Z" fill="#009FE3"/>
</g>
<defs>
<clipPath id="clip0_485_939">
<rect width="255" height="67" fill="white"/>
</clipPath>
</defs>
</svg>
