<svg width="40" height="41" viewBox="0 0 40 41" fill="none" xmlns="http://www.w3.org/2000/svg">
<rect y="0.5" width="40" height="40" rx="4" fill="#294BB6"/>
<path d="M18.4094 25.0915C18.6184 25.3006 18.8665 25.4664 19.1395 25.5796C19.4126 25.6928 19.7053 25.751 20.0009 25.751C20.2965 25.751 20.5892 25.6928 20.8623 25.5796C21.1353 25.4664 21.3835 25.3006 21.5924 25.0915L24.0007 22.6833C24.1298 22.5404 24.199 22.3535 24.1941 22.161C24.1891 21.9685 24.1104 21.7853 23.9741 21.6494C23.8378 21.5134 23.6545 21.435 23.462 21.4305C23.2695 21.4259 23.0827 21.4956 22.9402 21.625L20.7457 23.8203L20.7509 12.25C20.7509 12.0511 20.6719 11.8603 20.5312 11.7197C20.3906 11.579 20.1998 11.5 20.0009 11.5V11.5C19.802 11.5 19.6112 11.579 19.4706 11.7197C19.3299 11.8603 19.2509 12.0511 19.2509 12.25L19.2442 23.806L17.0617 21.625C16.9209 21.4844 16.7301 21.4054 16.5311 21.4055C16.3322 21.4055 16.1414 21.4846 16.0008 21.6254C15.8601 21.7661 15.7812 21.9569 15.7813 22.1559C15.7813 22.3548 15.8604 22.5456 16.0012 22.6863L18.4094 25.0915Z" fill="white"/>
<path d="M28.25 23.5C28.0511 23.5 27.8603 23.579 27.7197 23.7197C27.579 23.8603 27.5 24.0511 27.5 24.25V27.25C27.5 27.4489 27.421 27.6397 27.2803 27.7803C27.1397 27.921 26.9489 28 26.75 28H13.25C13.0511 28 12.8603 27.921 12.7197 27.7803C12.579 27.6397 12.5 27.4489 12.5 27.25V24.25C12.5 24.0511 12.421 23.8603 12.2803 23.7197C12.1397 23.579 11.9489 23.5 11.75 23.5C11.5511 23.5 11.3603 23.579 11.2197 23.7197C11.079 23.8603 11 24.0511 11 24.25V27.25C11 27.8467 11.2371 28.419 11.659 28.841C12.081 29.2629 12.6533 29.5 13.25 29.5H26.75C27.3467 29.5 27.919 29.2629 28.341 28.841C28.7629 28.419 29 27.8467 29 27.25V24.25C29 24.0511 28.921 23.8603 28.7803 23.7197C28.6397 23.579 28.4489 23.5 28.25 23.5Z" fill="white"/>
</svg>
