<svg width="517" height="741" viewBox="0 0 517 741" fill="none" xmlns="http://www.w3.org/2000/svg">
<path d="M422.46 184.743C417.481 184.018 412.472 183.626 407.553 183.626C333.505 183.626 280.527 264.392 261.188 299.144C257.059 306.542 257.757 315.63 262.918 322.302C267.29 327.918 274.091 330.968 281.225 330.424C288.39 329.881 294.735 325.835 298.257 319.585C317.657 285.074 357.641 227.164 407.766 227.164C410.498 227.164 413.261 227.376 415.963 227.798C456.858 233.897 479.173 306.904 471.492 409.439C461.169 547.27 399.356 694.824 323.79 694.824C214.403 694.824 79.2397 527.192 49.4261 395.067C39.8627 352.677 37.5857 297.876 81.1828 277.375C87.2244 274.537 93.934 273.118 101.069 273.118C152.772 273.118 218.319 343.407 251.806 411.342C274.333 457.023 272.482 482.627 266.561 485.616C265.499 486.16 264.163 486.431 262.584 486.431C246.341 486.431 209.849 458.473 177.697 421.366C170.047 412.549 156.84 411.221 147.641 418.407C142.874 422.09 139.96 427.404 139.353 433.382C138.745 439.361 140.597 445.188 144.544 449.747C170.35 479.608 220.11 529.698 263.586 529.698C271.753 529.698 279.434 527.917 286.386 524.384C321.422 506.691 323.183 457.265 291.092 392.169C252.231 313.335 172.293 229.519 100.765 229.519C87.3762 229.519 74.5035 232.388 62.481 238.034C8.07573 263.607 -11.719 322.755 6.73989 404.578C40.6217 554.819 193.606 738.301 323.79 738.301C438.915 738.301 504.979 547.874 515.119 412.64C525.047 280.062 490.406 194.858 422.46 184.713V184.743Z" fill="white"/>
<path d="M388.73 129.973C393.527 131.03 398.385 131.543 403.151 131.543C420.092 131.543 436.335 125.021 448.479 112.974C464.023 97.5155 470.429 75.2935 465.571 53.5243C460.38 30.3059 441.223 11.2239 417.876 6.06095C396.017 1.23007 373.671 7.60079 358.097 23.0596C342.552 38.5184 336.146 60.7405 341.004 82.5096C346.196 105.728 365.353 124.81 388.73 129.943V129.973Z" fill="white"/>
<path d="M61.0541 179.912C65.8813 180.969 70.7086 181.482 75.4751 181.482C92.416 181.482 108.689 174.961 120.803 162.883C136.347 147.425 142.753 125.202 137.895 103.464C132.704 80.2451 113.547 61.1632 90.1998 56.0002C68.3405 51.1693 45.9955 57.54 30.4512 72.9988C14.9068 88.4576 8.50083 110.68 13.3584 132.419C18.55 155.637 37.7072 174.719 61.0541 179.882V179.912Z" fill="white"/>
</svg>
